<svg width="28" height="28" viewBox="0 0 28 28" fill="none" xmlns="http://www.w3.org/2000/svg">
<g filter="url(#filter0_d_1_2175)">
<path d="M8.16667 8.33334H9.83334C11.5 8.33334 12.3333 7.5 12.3333 5.83334V4.16667C12.3333 2.50001 11.5 1.66667 9.83334 1.66667H8.16667C6.50001 1.66667 5.66667 2.50001 5.66667 4.16667V5.83334C5.66667 7.5 6.50001 8.33334 8.16667 8.33334Z" stroke="#111111" stroke-miterlimit="10" stroke-linecap="round" stroke-linejoin="round"/>
<path d="M18.1667 8.33334H19.8333C21.5 8.33334 22.3333 7.5 22.3333 5.83334V4.16667C22.3333 2.50001 21.5 1.66667 19.8333 1.66667H18.1667C16.5 1.66667 15.6667 2.50001 15.6667 4.16667V5.83334C15.6667 7.5 16.5 8.33334 18.1667 8.33334Z" stroke="#111111" stroke-miterlimit="10" stroke-linecap="round" stroke-linejoin="round"/>
<path d="M18.1667 18.3333H19.8333C21.5 18.3333 22.3333 17.5 22.3333 15.8333V14.1667C22.3333 12.5 21.5 11.6667 19.8333 11.6667H18.1667C16.5 11.6667 15.6667 12.5 15.6667 14.1667V15.8333C15.6667 17.5 16.5 18.3333 18.1667 18.3333Z" stroke="#111111" stroke-miterlimit="10" stroke-linecap="round" stroke-linejoin="round"/>
<path d="M8.16667 18.3333H9.83334C11.5 18.3333 12.3333 17.5 12.3333 15.8333V14.1667C12.3333 12.5 11.5 11.6667 9.83334 11.6667H8.16667C6.50001 11.6667 5.66667 12.5 5.66667 14.1667V15.8333C5.66667 17.5 6.50001 18.3333 8.16667 18.3333Z" stroke="#111111" stroke-miterlimit="10" stroke-linecap="round" stroke-linejoin="round"/>
</g>
<defs>
<filter id="filter0_d_1_2175" x="0" y="0" width="28" height="28" filterUnits="userSpaceOnUse" color-interpolation-filters="sRGB">
<feFlood flood-opacity="0" result="BackgroundImageFix"/>
<feColorMatrix in="SourceAlpha" type="matrix" values="0 0 0 0 0 0 0 0 0 0 0 0 0 0 0 0 0 0 127 0" result="hardAlpha"/>
<feOffset dy="4"/>
<feGaussianBlur stdDeviation="2"/>
<feComposite in2="hardAlpha" operator="out"/>
<feColorMatrix type="matrix" values="0 0 0 0 0 0 0 0 0 0 0 0 0 0 0 0 0 0 0.25 0"/>
<feBlend mode="normal" in2="BackgroundImageFix" result="effect1_dropShadow_1_2175"/>
<feBlend mode="normal" in="SourceGraphic" in2="effect1_dropShadow_1_2175" result="shape"/>
</filter>
</defs>
</svg>
