<svg width="32" height="32" viewBox="0 0 32 32" fill="none" xmlns="http://www.w3.org/2000/svg">
<g filter="url(#filter0_d_1_2193)">
<path d="M16.16 10.87C16.06 10.86 15.94 10.86 15.83 10.87C13.45 10.79 11.56 8.84 11.56 6.44C11.56 3.99 13.54 2 16 2C18.45 2 20.44 3.99 20.44 6.44C20.43 8.84 18.54 10.79 16.16 10.87Z" stroke="#EDEDED" stroke-width="1.5" stroke-linecap="round" stroke-linejoin="round"/>
<path d="M11.16 14.56C8.74 16.18 8.74 18.82 11.16 20.43C13.91 22.27 18.42 22.27 21.17 20.43C23.59 18.81 23.59 16.17 21.17 14.56C18.43 12.73 13.92 12.73 11.16 14.56Z" stroke="#EDEDED" stroke-width="1.5" stroke-linecap="round" stroke-linejoin="round"/>
</g>
<defs>
<filter id="filter0_d_1_2193" x="0" y="0" width="32" height="32" filterUnits="userSpaceOnUse" color-interpolation-filters="sRGB">
<feFlood flood-opacity="0" result="BackgroundImageFix"/>
<feColorMatrix in="SourceAlpha" type="matrix" values="0 0 0 0 0 0 0 0 0 0 0 0 0 0 0 0 0 0 127 0" result="hardAlpha"/>
<feOffset dy="4"/>
<feGaussianBlur stdDeviation="2"/>
<feComposite in2="hardAlpha" operator="out"/>
<feColorMatrix type="matrix" values="0 0 0 0 0 0 0 0 0 0 0 0 0 0 0 0 0 0 0.25 0"/>
<feBlend mode="normal" in2="BackgroundImageFix" result="effect1_dropShadow_1_2193"/>
<feBlend mode="normal" in="SourceGraphic" in2="effect1_dropShadow_1_2193" result="shape"/>
</filter>
</defs>
</svg>
