<svg width="48" height="49" viewBox="0 0 48 49" fill="none" xmlns="http://www.w3.org/2000/svg">
<rect width="48" height="49" rx="12" fill="#292526"/>
<path d="M22.3302 29.5929H16.0294" stroke="white" stroke-width="1.5" stroke-linecap="round" stroke-linejoin="round"/>
<path d="M25.1405 19.9004H31.4412" stroke="white" stroke-width="1.5" stroke-linecap="round" stroke-linejoin="round"/>
<path fill-rule="evenodd" clip-rule="evenodd" d="M20.7263 19.8463C20.7263 18.5506 19.6681 17.5 18.3631 17.5C17.0582 17.5 16 18.5506 16 19.8463C16 21.1419 17.0582 22.1925 18.3631 22.1925C19.6681 22.1925 20.7263 21.1419 20.7263 19.8463Z" stroke="white" stroke-width="1.5" stroke-linecap="round" stroke-linejoin="round"/>
<path fill-rule="evenodd" clip-rule="evenodd" d="M32 29.5537C32 28.2581 30.9427 27.2075 29.6377 27.2075C28.3319 27.2075 27.2737 28.2581 27.2737 29.5537C27.2737 30.8494 28.3319 31.9 29.6377 31.9C30.9427 31.9 32 30.8494 32 29.5537Z" stroke="white" stroke-width="1.5" stroke-linecap="round" stroke-linejoin="round"/>
</svg>
