<svg width="48" height="48" viewBox="0 0 48 48" fill="none" xmlns="http://www.w3.org/2000/svg">
<g filter="url(#filter0_d_1_2199)">
<rect x="4.5" y="0.5" width="39" height="39" rx="19.5" stroke="#EDEDED" shape-rendering="crispEdges"/>
<path fill-rule="evenodd" clip-rule="evenodd" d="M19 16C18.4477 16 18 16.4477 18 17C18 17.5523 18.4477 18 19 18H29C29.5523 18 30 17.5523 30 17C30 16.4477 29.5523 16 29 16H19ZM22.6923 22C22.14 22 21.6923 22.4477 21.6923 23C21.6923 23.5523 22.14 24 22.6923 24H29C29.5522 24 30 23.5523 30 23C30 22.4477 29.5522 22 29 22H22.6923Z" fill="#1B2028"/>
</g>
<defs>
<filter id="filter0_d_1_2199" x="0" y="0" width="48" height="48" filterUnits="userSpaceOnUse" color-interpolation-filters="sRGB">
<feFlood flood-opacity="0" result="BackgroundImageFix"/>
<feColorMatrix in="SourceAlpha" type="matrix" values="0 0 0 0 0 0 0 0 0 0 0 0 0 0 0 0 0 0 127 0" result="hardAlpha"/>
<feOffset dy="4"/>
<feGaussianBlur stdDeviation="2"/>
<feComposite in2="hardAlpha" operator="out"/>
<feColorMatrix type="matrix" values="0 0 0 0 0 0 0 0 0 0 0 0 0 0 0 0 0 0 0.25 0"/>
<feBlend mode="normal" in2="BackgroundImageFix" result="effect1_dropShadow_1_2199"/>
<feBlend mode="normal" in="SourceGraphic" in2="effect1_dropShadow_1_2199" result="shape"/>
</filter>
</defs>
</svg>
