<svg width="26" height="26" viewBox="0 0 26 26" fill="none" xmlns="http://www.w3.org/2000/svg">
<g filter="url(#filter0_d_1_2181)">
<path d="M19.9627 6.20683L15.4996 5.5582L13.5045 1.51347C13.45 1.40273 13.3604 1.31308 13.2496 1.25859C12.9719 1.12148 12.6344 1.23574 12.4955 1.51347L10.5004 5.5582L6.0373 6.20683C5.91426 6.22441 5.80176 6.28242 5.71562 6.37031C5.61149 6.47734 5.55411 6.62133 5.55609 6.77064C5.55807 6.91995 5.61924 7.06237 5.72617 7.1666L8.95527 10.3148L8.19238 14.7603C8.17449 14.8638 8.18593 14.9701 8.22541 15.0674C8.26489 15.1646 8.33083 15.2488 8.41574 15.3105C8.50066 15.3722 8.60116 15.4088 8.70584 15.4163C8.81052 15.4237 8.9152 15.4017 9.00801 15.3527L13 13.2539L16.992 15.3527C17.101 15.4107 17.2275 15.4301 17.3488 15.409C17.6547 15.3562 17.8604 15.0662 17.8076 14.7603L17.0447 10.3148L20.2738 7.1666C20.3617 7.08047 20.4197 6.96797 20.4373 6.84492C20.4848 6.5373 20.2703 6.25254 19.9627 6.20683Z" fill="#FFD33C"/>
</g>
<defs>
<filter id="filter0_d_1_2181" x="0" y="0" width="26" height="26" filterUnits="userSpaceOnUse" color-interpolation-filters="sRGB">
<feFlood flood-opacity="0" result="BackgroundImageFix"/>
<feColorMatrix in="SourceAlpha" type="matrix" values="0 0 0 0 0 0 0 0 0 0 0 0 0 0 0 0 0 0 127 0" result="hardAlpha"/>
<feOffset dy="4"/>
<feGaussianBlur stdDeviation="2"/>
<feComposite in2="hardAlpha" operator="out"/>
<feColorMatrix type="matrix" values="0 0 0 0 0 0 0 0 0 0 0 0 0 0 0 0 0 0 0.25 0"/>
<feBlend mode="normal" in2="BackgroundImageFix" result="effect1_dropShadow_1_2181"/>
<feBlend mode="normal" in="SourceGraphic" in2="effect1_dropShadow_1_2181" result="shape"/>
</filter>
</defs>
</svg>
