<svg width="32" height="32" viewBox="0 0 32 32" fill="none" xmlns="http://www.w3.org/2000/svg">
<g filter="url(#filter0_d_1_2188)">
<path d="M12.4 6.5H19.6C23 6.5 23.34 8.09 23.57 10.03L24.47 17.53C24.76 19.99 24 22 20.5 22H11.51C7.99999 22 7.23999 19.99 7.53999 17.53L8.44 10.03C8.66 8.09 8.99999 6.5 12.4 6.5Z" stroke="white" stroke-width="1.5" stroke-linecap="round" stroke-linejoin="round"/>
<path d="M12 8V4.5C12 3 13 2 14.5 2H17.5C19 2 20 3 20 4.5V8" stroke="white" stroke-width="1.5" stroke-linecap="round" stroke-linejoin="round"/>
<path d="M24.41 17.03H12" stroke="white" stroke-width="1.5" stroke-linecap="round" stroke-linejoin="round"/>
<rect x="18" y="4" width="8" height="8" rx="4" fill="#F13658"/>
<rect x="18" y="4" width="8" height="8" rx="4" stroke="white"/>
</g>
<defs>
<filter id="filter0_d_1_2188" x="0" y="0" width="32" height="32" filterUnits="userSpaceOnUse" color-interpolation-filters="sRGB">
<feFlood flood-opacity="0" result="BackgroundImageFix"/>
<feColorMatrix in="SourceAlpha" type="matrix" values="0 0 0 0 0 0 0 0 0 0 0 0 0 0 0 0 0 0 127 0" result="hardAlpha"/>
<feOffset dy="4"/>
<feGaussianBlur stdDeviation="2"/>
<feComposite in2="hardAlpha" operator="out"/>
<feColorMatrix type="matrix" values="0 0 0 0 0 0 0 0 0 0 0 0 0 0 0 0 0 0 0.25 0"/>
<feBlend mode="normal" in2="BackgroundImageFix" result="effect1_dropShadow_1_2188"/>
<feBlend mode="normal" in="SourceGraphic" in2="effect1_dropShadow_1_2188" result="shape"/>
</filter>
</defs>
</svg>
