<svg width="106" height="18" viewBox="0 0 106 18" fill="none" xmlns="http://www.w3.org/2000/svg">
<path d="M15.9627 6.20683L11.4996 5.5582L9.50449 1.51347C9.45 1.40273 9.36035 1.31308 9.24961 1.25859C8.97188 1.12148 8.63438 1.23574 8.49551 1.51347L6.50039 5.5582L2.03731 6.20683C1.91426 6.22441 1.80176 6.28242 1.71563 6.37031C1.6115 6.47734 1.55412 6.62133 1.5561 6.77064C1.55807 6.91995 1.61925 7.06237 1.72617 7.1666L4.95528 10.3148L4.19239 14.7603C4.1745 14.8638 4.18594 14.9701 4.22542 15.0674C4.2649 15.1646 4.33083 15.2488 4.41575 15.3105C4.50066 15.3722 4.60116 15.4088 4.70584 15.4163C4.81052 15.4237 4.9152 15.4017 5.00801 15.3527L9 13.2539L12.992 15.3527C13.101 15.4107 13.2275 15.4301 13.3488 15.409C13.6547 15.3562 13.8604 15.0662 13.8076 14.7603L13.0447 10.3148L16.2738 7.1666C16.3617 7.08047 16.4197 6.96797 16.4373 6.84492C16.4848 6.5373 16.2703 6.25254 15.9627 6.20683Z" fill="#FFD33C"/>
<path d="M37.9627 6.20683L33.4996 5.5582L31.5045 1.51347C31.45 1.40273 31.3604 1.31308 31.2496 1.25859C30.9719 1.12148 30.6344 1.23574 30.4955 1.51347L28.5004 5.5582L24.0373 6.20683C23.9143 6.22441 23.8018 6.28242 23.7156 6.37031C23.6115 6.47734 23.5541 6.62133 23.5561 6.77064C23.5581 6.91995 23.6192 7.06237 23.7262 7.1666L26.9553 10.3148L26.1924 14.7603C26.1745 14.8638 26.1859 14.9701 26.2254 15.0674C26.2649 15.1646 26.3308 15.2488 26.4157 15.3105C26.5007 15.3722 26.6012 15.4088 26.7058 15.4163C26.8105 15.4237 26.9152 15.4017 27.008 15.3527L31 13.2539L34.992 15.3527C35.101 15.4107 35.2275 15.4301 35.3488 15.409C35.6547 15.3562 35.8604 15.0662 35.8076 14.7603L35.0447 10.3148L38.2738 7.1666C38.3617 7.08047 38.4197 6.96797 38.4373 6.84492C38.4848 6.5373 38.2703 6.25254 37.9627 6.20683Z" fill="#FFD33C"/>
<path d="M59.9627 6.20683L55.4996 5.5582L53.5045 1.51347C53.45 1.40273 53.3604 1.31308 53.2496 1.25859C52.9719 1.12148 52.6344 1.23574 52.4955 1.51347L50.5004 5.5582L46.0373 6.20683C45.9143 6.22441 45.8018 6.28242 45.7156 6.37031C45.6115 6.47734 45.5541 6.62133 45.5561 6.77064C45.5581 6.91995 45.6192 7.06237 45.7262 7.1666L48.9553 10.3148L48.1924 14.7603C48.1745 14.8638 48.1859 14.9701 48.2254 15.0674C48.2649 15.1646 48.3308 15.2488 48.4157 15.3105C48.5007 15.3722 48.6012 15.4088 48.7058 15.4163C48.8105 15.4237 48.9152 15.4017 49.008 15.3527L53 13.2539L56.992 15.3527C57.101 15.4107 57.2275 15.4301 57.3488 15.409C57.6547 15.3562 57.8604 15.0662 57.8076 14.7603L57.0447 10.3148L60.2738 7.1666C60.3617 7.08047 60.4197 6.96797 60.4373 6.84492C60.4848 6.5373 60.2703 6.25254 59.9627 6.20683Z" fill="#FFD33C"/>
<path d="M81.9627 6.20683L77.4996 5.5582L75.5045 1.51347C75.45 1.40273 75.3604 1.31308 75.2496 1.25859C74.9719 1.12148 74.6344 1.23574 74.4955 1.51347L72.5004 5.5582L68.0373 6.20683C67.9143 6.22441 67.8018 6.28242 67.7156 6.37031C67.6115 6.47734 67.5541 6.62133 67.5561 6.77064C67.5581 6.91995 67.6192 7.06237 67.7262 7.1666L70.9553 10.3148L70.1924 14.7603C70.1745 14.8638 70.1859 14.9701 70.2254 15.0674C70.2649 15.1646 70.3308 15.2488 70.4157 15.3105C70.5007 15.3722 70.6012 15.4088 70.7058 15.4163C70.8105 15.4237 70.9152 15.4017 71.008 15.3527L75 13.2539L78.992 15.3527C79.101 15.4107 79.2275 15.4301 79.3488 15.409C79.6547 15.3562 79.8604 15.0662 79.8076 14.7603L79.0447 10.3148L82.2738 7.1666C82.3617 7.08047 82.4197 6.96797 82.4373 6.84492C82.4848 6.5373 82.2703 6.25254 81.9627 6.20683Z" fill="#FFD33C"/>
<path d="M103.963 6.20683L99.4996 5.5582L97.5045 1.51347C97.45 1.40273 97.3604 1.31308 97.2496 1.25859C96.9719 1.12148 96.6344 1.23574 96.4955 1.51347L94.5004 5.5582L90.0373 6.20683C89.9143 6.22441 89.8018 6.28242 89.7156 6.37031C89.6115 6.47734 89.5541 6.62133 89.5561 6.77064C89.5581 6.91995 89.6192 7.06237 89.7262 7.1666L92.9553 10.3148L92.1924 14.7603C92.1745 14.8638 92.1859 14.9701 92.2254 15.0674C92.2649 15.1646 92.3308 15.2488 92.4157 15.3105C92.5007 15.3722 92.6012 15.4088 92.7058 15.4163C92.8105 15.4237 92.9152 15.4017 93.008 15.3527L97 13.2539L100.992 15.3527C101.101 15.4107 101.228 15.4301 101.349 15.409C101.655 15.3562 101.86 15.0662 101.808 14.7603L101.045 10.3148L104.274 7.1666C104.362 7.08047 104.42 6.96797 104.437 6.84492C104.485 6.5373 104.27 6.25254 103.963 6.20683Z" fill="#FFD33C"/>
</svg>
