<svg width="24" height="24" viewBox="0 0 24 24" fill="none" xmlns="http://www.w3.org/2000/svg">
<g filter="url(#filter0_d_1_2173)">
<path d="M14.96 2.06667C13.7533 2.06667 12.6733 2.65333 12 3.55333C11.3267 2.65333 10.2467 2.06667 9.03999 2.06667C6.99333 2.06667 5.33333 3.73333 5.33333 5.79333C5.33333 6.58667 5.45999 7.32 5.67999 8C6.73333 11.3333 9.98 13.3267 11.5867 13.8733C11.8133 13.9533 12.1867 13.9533 12.4133 13.8733C14.02 13.3267 17.2667 11.3333 18.32 8C18.54 7.32 18.6667 6.58667 18.6667 5.79333C18.6667 3.73333 17.0067 2.06667 14.96 2.06667Z" fill="white"/>
</g>
<defs>
<filter id="filter0_d_1_2173" x="0" y="0" width="24" height="24" filterUnits="userSpaceOnUse" color-interpolation-filters="sRGB">
<feFlood flood-opacity="0" result="BackgroundImageFix"/>
<feColorMatrix in="SourceAlpha" type="matrix" values="0 0 0 0 0 0 0 0 0 0 0 0 0 0 0 0 0 0 127 0" result="hardAlpha"/>
<feOffset dy="4"/>
<feGaussianBlur stdDeviation="2"/>
<feComposite in2="hardAlpha" operator="out"/>
<feColorMatrix type="matrix" values="0 0 0 0 0 0 0 0 0 0 0 0 0 0 0 0 0 0 0.25 0"/>
<feBlend mode="normal" in2="BackgroundImageFix" result="effect1_dropShadow_1_2173"/>
<feBlend mode="normal" in="SourceGraphic" in2="effect1_dropShadow_1_2173" result="shape"/>
</filter>
</defs>
</svg>
