<svg width="375" height="44" viewBox="0 0 375 44" fill="none" xmlns="http://www.w3.org/2000/svg">
<path opacity="0.35" d="M326.5 20C326.5 18.8034 327.47 17.8334 328.667 17.8334H345.333C346.53 17.8334 347.5 18.8034 347.5 20V26C347.5 27.1967 346.53 28.1667 345.333 28.1667H328.667C327.47 28.1667 326.5 27.1967 326.5 26V20Z" stroke="black"/>
<path opacity="0.4" d="M349 21V25C349.805 24.6613 350.328 23.8732 350.328 23C350.328 22.1269 349.805 21.3388 349 21Z" fill="black"/>
<path d="M328 20.6667C328 19.9303 328.597 19.3334 329.333 19.3334H344.667C345.403 19.3334 346 19.9303 346 20.6667V25.3334C346 26.0698 345.403 26.6667 344.667 26.6667H329.333C328.597 26.6667 328 26.0698 328 25.3334V20.6667Z" fill="black"/>
<path fill-rule="evenodd" clip-rule="evenodd" d="M313.33 19.608C315.546 19.6081 317.677 20.4596 319.283 21.9863C319.404 22.1042 319.598 22.1027 319.717 21.983L320.873 20.8163C320.933 20.7556 320.967 20.6734 320.966 20.5878C320.966 20.5022 320.931 20.4204 320.87 20.3603C316.655 16.3208 310.005 16.3208 305.79 20.3603C305.729 20.4203 305.694 20.5021 305.694 20.5877C305.693 20.6733 305.727 20.7556 305.787 20.8163L306.943 21.983C307.062 22.1029 307.256 22.1044 307.377 21.9863C308.983 20.4595 311.114 19.608 313.33 19.608ZM313.33 23.4037C314.548 23.4036 315.722 23.8561 316.624 24.6733C316.746 24.7893 316.939 24.7868 317.058 24.6677L318.212 23.501C318.273 23.4398 318.307 23.3568 318.306 23.2705C318.305 23.1843 318.27 23.102 318.208 23.042C315.459 20.4856 311.204 20.4856 308.455 23.042C308.393 23.102 308.358 23.1843 308.357 23.2706C308.356 23.3569 308.39 23.4399 308.451 23.501L309.605 24.6677C309.724 24.7868 309.917 24.7893 310.039 24.6733C310.941 23.8567 312.114 23.4042 313.33 23.4037ZM315.643 25.9575C315.645 26.044 315.611 26.1274 315.549 26.188L313.552 28.2037C313.493 28.2629 313.414 28.2963 313.33 28.2963C313.247 28.2963 313.167 28.2629 313.109 28.2037L311.111 26.188C311.049 26.1274 311.015 26.0439 311.017 25.9574C311.019 25.8709 311.056 25.789 311.121 25.731C312.396 24.6521 314.264 24.6521 315.54 25.731C315.604 25.7891 315.642 25.871 315.643 25.9575Z" fill="black"/>
<path fill-rule="evenodd" clip-rule="evenodd" d="M299.667 17.6666H298.667C298.114 17.6666 297.667 18.1143 297.667 18.6666V27.3333C297.667 27.8856 298.114 28.3333 298.667 28.3333H299.667C300.219 28.3333 300.667 27.8856 300.667 27.3333V18.6666C300.667 18.1143 300.219 17.6666 299.667 17.6666ZM294 20H295C295.552 20 296 20.4477 296 21V27.3333C296 27.8856 295.552 28.3333 295 28.3333H294C293.448 28.3333 293 27.8856 293 27.3333V21C293 20.4477 293.448 20 294 20ZM290.333 22.3333H289.333C288.781 22.3333 288.333 22.781 288.333 23.3333V27.3333C288.333 27.8856 288.781 28.3333 289.333 28.3333H290.333C290.886 28.3333 291.333 27.8856 291.333 27.3333V23.3333C291.333 22.781 290.886 22.3333 290.333 22.3333ZM285.667 24.3333H284.667C284.114 24.3333 283.667 24.781 283.667 25.3333V27.3333C283.667 27.8856 284.114 28.3333 284.667 28.3333H285.667C286.219 28.3333 286.667 27.8856 286.667 27.3333V25.3333C286.667 24.781 286.219 24.3333 285.667 24.3333Z" fill="black"/>
<path d="M27.8092 28C30.4569 28 32.0296 25.7252 32.0296 21.8732C32.0296 20.4227 31.7771 19.2021 31.2938 18.2589C30.594 16.7926 29.3892 16 27.8669 16C25.6016 16 24 17.6724 24 20.0185C24 22.2219 25.4429 23.823 27.4268 23.823C28.6461 23.823 29.6345 23.1968 30.125 22.111H30.1467C30.1467 22.111 30.1755 22.111 30.1828 22.111C30.1972 22.111 30.2477 22.111 30.2477 22.111C30.2477 24.7266 29.3459 26.288 27.8236 26.288C26.9291 26.288 26.2365 25.749 25.9984 24.8851H24.1443C24.4545 26.7635 25.9046 28 27.8092 28ZM27.8741 22.1982C26.6765 22.1982 25.8252 21.2629 25.8252 19.9551C25.8252 18.679 26.7198 17.7041 27.8814 17.7041C29.0429 17.7041 29.9375 18.6948 29.9375 19.9868C29.9375 21.2629 29.0645 22.1982 27.8741 22.1982Z" fill="black"/>
<path d="M35.0744 27.889C35.7598 27.889 36.2287 27.3501 36.2287 26.6367C36.2287 25.9155 35.7598 25.3844 35.0744 25.3844C34.3963 25.3844 33.9201 25.9155 33.9201 26.6367C33.9201 27.3501 34.3963 27.889 35.0744 27.889ZM35.0744 21.9445C35.7598 21.9445 36.2287 21.4135 36.2287 20.7001C36.2287 19.9789 35.7598 19.4478 35.0744 19.4478C34.3963 19.4478 33.9201 19.9789 33.9201 20.7001C33.9201 21.4135 34.3963 21.9445 35.0744 21.9445Z" fill="black"/>
<path d="M42.9817 27.7226H44.7637V25.5905H46.1705V23.8626H44.7637V16.2853H42.1376C40.2979 19.3289 38.8334 21.8732 37.8955 23.7675V25.5905H42.9817V27.7226ZM39.6198 23.7913C40.8318 21.4452 41.914 19.5667 42.9096 17.9498H43.0106V23.9102H39.6198V23.7913Z" fill="black"/>
<path d="M50.1387 27.7226H52V16.2853H50.1459L47.4261 18.3778V20.3435L50.016 18.3461H50.1387V27.7226Z" fill="black"/>
</svg>
